<!DOCTYPE svg PUBLIC "-//W3C//DTD SVG 20010904//EN" "http://www.w3.org/TR/2001/REC-SVG-20010904/DTD/svg10.dtd">
<svg version="1.0" xmlns="http://www.w3.org/2000/svg" width="202px" height="19px" viewBox="0 0 2020 190" preserveAspectRatio="xMidYMid meet">
<g id="layer101" fill="#904813" stroke="none">
 <path d="M12 178 c-7 -7 -12 -44 -12 -95 l0 -83 1010 0 1010 0 0 95 0 95 -998 0 c-763 0 -1001 -3 -1010 -12z"/>
 </g>
<g id="layer102" fill="#b3691f" stroke="none">
 <path d="M299 163 l-277 -3 -5 -23 c-6 -31 -3 -100 6 -115 7 -9 216 -12 993 -12 l984 0 1 28 c1 15 3 48 5 73 l3 46 -241 6 c-224 7 -816 6 -1469 0z"/>
 </g>
<g id="layer103" fill="#de8e29" stroke="none">
 <path d="M20 118 c0 -26 3 -28 37 -28 44 0 38 -11 -6 -12 -58 -2 -31 -17 37 -21 l67 -3 -67 -2 c-50 -1 -68 -6 -68 -16 0 -8 17 -16 46 -20 71 -9 1907 -7 1923 3 8 5 11 17 7 28 -6 18 -19 21 -113 26 -58 4 -142 7 -185 7 -50 0 -77 4 -73 10 4 6 74 10 176 10 132 0 170 3 167 12 -3 7 -22 17 -44 22 -21 5 -459 9 -971 10 l-933 1 0 -27z m1310 -67 c101 -8 98 -8 -82 -10 -179 -2 -516 -3 -670 -2 -47 1 -69 4 -62 11 6 6 121 11 284 12 285 3 353 2 530 -11z"/>
 </g>
<g id="layer104" fill="#ffbe63" stroke="none">
 <path d="M20 125 c0 -14 4 -25 9 -25 4 0 6 11 3 25 -2 14 -6 25 -8 25 -2 0 -4 -11 -4 -25z"/>
 <path d="M20 33 c0 -19 1391 -30 1555 -13 39 4 -289 8 -727 8 -438 1 -803 5 -812 8 -9 3 -16 2 -16 -3z"/>
 </g>

</svg>